<?xml version="1.0" encoding="utf-8"?>
<!-- Generator: Adobe Illustrator 18.1.1, SVG Export Plug-In . SVG Version: 6.00 Build 0)  -->
<svg version="1.1" xmlns="http://www.w3.org/2000/svg" xmlns:xlink="http://www.w3.org/1999/xlink" x="0px" y="0px"
	 viewBox="-236 328 138 138" enable-background="new -236 328 138 138" xml:space="preserve">
<g id="Слой_2">
	<circle fill="#E3E3E3" cx="-167" cy="397" r="69"/>
</g>
<g id="Слой_1">
	<g id="_x23_ffffffff">
		<path fill="#FFFFFF" d="M-158.8,365.9c2.8,0.1,6.4-0.1,8,2.8c1.4,3.6,1,7.7,0.9,11.5c-0.3,2-0.7,4-1.1,6c4.4,0.5,9.6-1.1,13.6,1.3
			c1.8,3.6,3.2,7.5,3.5,11.6c-0.7,7.8-4.7,14.9-5.5,22.7c-7.6,2.7-15.8,1.2-23.7,1c-4.3,0.1-8.3-1.5-12-3.5c0.2-8.5-0.2-17,0.2-25.5
			c5.2-4.1,8.8-9.7,13.1-14.7C-158.6,375.5-159.3,370.4-158.8,365.9z"/>
	</g>
	<g id="_x23_ccccccff">
		<path fill="#CCCCCC" d="M-148.9,370.4c12.8,11.7,24.6,24.4,37.2,36.2c3.6,3.6,7.6,6.8,10.3,11.1c-4.4,13.1-12.5,25-23.5,33.4
			c-9.7,7.5-21.4,12.5-33.7,13.9c-12.5-13.7-26.5-26-39.4-39.4c6.6-0.4,13.2,0.1,19.8-0.2c3.1-0.3,3.3-4,2.9-6.3
			c3.7,2.1,7.7,3.6,12,3.5c7.8,0.1,16.1,1.7,23.7-1c0.8-7.8,4.8-14.8,5.5-22.6c-0.3-4-1.7-8-3.5-11.5c-4-2.4-9.1-0.7-13.6-1.3
			c0.4-2,0.9-4,1.1-6C-149.4,376.9-149.2,373.7-148.9,370.4z"/>
	</g>
	<g id="_x23_586373ff">
		<path fill="#586373" d="M-200.6,390c0-2.3,2.6-3.4,4.5-3.2c6.1,0.1,12.2-0.2,18.2,0.2c3.2,0.5,3.2,4.4,2.9,6.9
			c-0.4,8.6,0.1,17.1-0.2,25.7c-0.5-4.4-0.9-8.7-0.9-13.1c-8.2-0.3-16.4,0.1-24.6-0.1C-200.6,400.9-200.9,395.4-200.6,390z"/>
	</g>
	<g id="_x23_505b69ff">
		<path fill="#505B69" d="M-200.7,406c8.2,0.2,16.4-0.2,24.6,0.1c0.1,4.3,0.4,8.7,0.9,13c0.3,2.4,0.1,6-2.9,6.3
			c-6.6,0.3-13.2-0.1-19.8,0.2c-1.1-1.1-2.9-1.9-2.7-3.7C-200.8,416.7-200.6,411.4-200.7,406 M-180.7,417.3c-2.3,1.9,1.4,5.4,3.2,3
			C-175.3,418.5-178.9,415-180.7,417.3z"/>
	</g>
	<g id="_x23_ffd304ff">
		<path fill="#FFD304" d="M-180.7,417.4c1.8-2.4,5.4,1.2,3.2,3C-179.2,422.8-183,419.2-180.7,417.4z"/>
	</g>
</g>
</svg>
