<?xml version="1.0" encoding="UTF-8" ?>
<!DOCTYPE svg PUBLIC "-//W3C//DTD SVG 1.1//EN" "http://www.w3.org/Graphics/SVG/1.1/DTD/svg11.dtd">
<svg width="138pt" height="138pt" viewBox="0 0 138 138" version="1.1" xmlns="http://www.w3.org/2000/svg">
<g id="#ffffffff">
<path fill="#ffffff" opacity="1.00" d=" M 35.68 42.20 C 57.48 42.21 79.28 42.20 101.09 42.20 C 101.10 54.72 101.11 67.24 101.08 79.76 C 79.28 79.76 57.47 79.76 35.67 79.77 C 35.66 67.24 35.65 54.72 35.68 42.20 M 86.39 45.72 C 89.82 46.16 93.30 46.21 96.75 45.86 C 94.08 43.06 89.38 43.81 86.39 45.72 M 40.33 47.38 C 40.36 53.43 40.36 59.48 40.33 65.54 C 58.83 65.52 77.33 65.54 95.82 65.51 C 95.81 59.47 95.81 53.44 95.83 47.40 C 77.33 47.38 58.83 47.41 40.33 47.38 M 40.51 66.72 C 40.51 68.75 40.51 70.78 40.52 72.82 C 45.78 72.81 51.05 72.81 56.31 72.81 C 56.31 70.78 56.32 68.75 56.32 66.72 C 51.05 66.71 45.78 66.71 40.51 66.72 M 60.28 66.76 C 60.30 68.78 60.32 70.80 60.34 72.82 C 65.59 72.80 70.85 72.80 76.10 72.80 C 76.10 70.78 76.10 68.75 76.09 66.73 C 70.82 66.71 65.55 66.71 60.28 66.76 M 80.08 66.77 C 80.10 68.78 80.11 70.79 80.13 72.80 C 85.36 72.81 90.60 72.80 95.83 72.81 C 95.83 70.79 95.83 68.78 95.83 66.76 C 90.58 66.74 85.33 66.74 80.08 66.77 M 40.50 73.97 C 40.46 75.33 40.43 76.70 40.39 78.06 C 45.70 78.21 50.95 77.38 56.21 76.78 C 56.20 76.05 56.17 74.59 56.15 73.86 C 50.94 73.62 45.71 73.61 40.50 73.97 M 60.31 73.99 C 60.24 75.34 60.18 76.70 60.13 78.06 C 65.44 78.18 70.70 77.34 75.96 76.81 C 75.98 76.07 76.02 74.60 76.04 73.86 C 70.80 73.60 65.54 73.62 60.31 73.99 M 80.06 73.90 C 80.05 75.29 80.05 76.68 80.05 78.08 C 85.38 78.05 90.66 77.30 95.95 76.78 C 95.94 76.06 95.91 74.62 95.90 73.90 C 90.63 73.63 85.34 73.62 80.06 73.90 Z" />
</g>
<g id="#f26b55ff">
<path fill="#f26b55" opacity="1.00" d=" M 64.34 0.00 L 71.79 0.00 C 88.93 0.64 105.62 8.18 117.59 20.43 C 131.48 34.44 138.84 54.67 137.19 74.32 C 131.43 69.60 126.61 63.90 121.04 58.97 C 114.77 53.43 109.04 47.32 103.07 41.47 C 102.75 41.14 102.12 40.49 101.80 40.17 C 79.22 40.17 56.65 40.04 34.08 40.24 C 33.87 54.08 34.09 67.93 33.96 81.78 C 33.98 83.76 34.00 85.75 34.15 87.73 L 34.72 88.28 C 45.61 98.73 55.90 109.80 67.14 119.89 C 72.39 125.11 77.94 130.09 82.59 135.89 C 66.16 139.63 48.51 136.35 34.00 127.97 C 14.41 116.71 1.17 95.29 0.00 72.70 L 0.00 64.33 C 1.11 45.42 10.47 27.18 25.23 15.30 C 36.24 6.27 50.13 0.88 64.34 0.00 Z" />
<path fill="#f26b55" opacity="1.00" d=" M 60.28 66.76 C 65.55 66.71 70.82 66.71 76.09 66.73 C 76.10 68.75 76.10 70.78 76.10 72.80 C 70.85 72.80 65.59 72.80 60.34 72.82 C 60.32 70.80 60.30 68.78 60.28 66.76 Z" />
</g>
<g id="#646873ff">
<path fill="#646873" opacity="1.00" d=" M 34.08 40.24 C 56.65 40.04 79.22 40.17 101.80 40.17 C 102.12 40.49 102.75 41.14 103.07 41.47 C 102.91 54.90 103.07 68.34 102.99 81.78 C 79.98 81.76 56.97 81.76 33.96 81.78 C 34.09 67.93 33.87 54.08 34.08 40.24 M 35.68 42.20 C 35.65 54.72 35.66 67.24 35.67 79.77 C 57.47 79.76 79.28 79.76 101.08 79.76 C 101.11 67.24 101.10 54.72 101.09 42.20 C 79.28 42.20 57.48 42.21 35.68 42.20 Z" />
</g>
<g id="#da614dff">
<path fill="#da614d" opacity="1.00" d=" M 103.07 41.47 C 109.04 47.32 114.77 53.43 121.04 58.97 C 126.61 63.90 131.43 69.60 137.19 74.32 C 135.97 85.84 132.33 97.18 125.77 106.79 C 115.90 121.59 100.11 132.46 82.59 135.89 C 77.94 130.09 72.39 125.11 67.14 119.89 C 55.90 109.80 45.61 98.73 34.72 88.28 C 42.44 88.58 50.17 88.28 57.90 88.41 C 57.85 89.01 57.76 90.21 57.71 90.81 C 57.55 93.06 57.35 95.31 57.13 97.56 C 64.69 97.56 72.26 97.56 79.83 97.56 C 79.49 95.68 79.17 93.80 78.98 91.90 C 78.89 90.73 78.81 89.57 78.76 88.40 C 86.79 88.33 94.82 88.54 102.85 88.22 C 102.90 86.07 102.96 83.92 102.99 81.78 C 103.07 68.34 102.91 54.90 103.07 41.47 Z" />
</g>
<g id="#e6e6e7ff">
<path fill="#e6e6e7" opacity="1.00" d=" M 86.39 45.72 C 89.38 43.81 94.08 43.06 96.75 45.86 C 93.30 46.21 89.82 46.16 86.39 45.72 Z" />
</g>
<g id="#5fd4afff">
<path fill="#5fd4af" opacity="1.00" d=" M 40.33 47.38 C 58.83 47.41 77.33 47.38 95.83 47.40 C 95.81 53.44 95.81 59.47 95.82 65.51 C 77.33 65.54 58.83 65.52 40.33 65.54 C 40.36 59.48 40.36 53.43 40.33 47.38 Z" />
</g>
<g id="#ffd006ff">
<path fill="#ffd006" opacity="1.00" d=" M 40.51 66.72 C 45.78 66.71 51.05 66.71 56.32 66.72 C 56.32 68.75 56.31 70.78 56.31 72.81 C 51.05 72.81 45.78 72.81 40.52 72.82 C 40.51 70.78 40.51 68.75 40.51 66.72 Z" />
</g>
<g id="#5fbcf5ff">
<path fill="#5fbcf5" opacity="1.00" d=" M 80.08 66.77 C 85.33 66.74 90.58 66.74 95.83 66.76 C 95.83 68.78 95.83 70.79 95.83 72.81 C 90.60 72.80 85.36 72.81 80.13 72.80 C 80.11 70.79 80.10 68.78 80.08 66.77 Z" />
</g>
<g id="#eaeaeaff">
<path fill="#eaeaea" opacity="1.00" d=" M 40.50 73.97 C 45.71 73.61 50.94 73.62 56.15 73.86 C 56.17 74.59 56.20 76.05 56.21 76.78 C 50.95 77.38 45.70 78.21 40.39 78.06 C 40.43 76.70 40.46 75.33 40.50 73.97 Z" />
<path fill="#eaeaea" opacity="1.00" d=" M 60.31 73.99 C 65.54 73.62 70.80 73.60 76.04 73.86 C 76.02 74.60 75.98 76.07 75.96 76.81 C 70.70 77.34 65.44 78.18 60.13 78.06 C 60.18 76.70 60.24 75.34 60.31 73.99 Z" />
<path fill="#eaeaea" opacity="1.00" d=" M 80.06 73.90 C 85.34 73.62 90.63 73.63 95.90 73.90 C 95.91 74.62 95.94 76.06 95.95 76.78 C 90.66 77.30 85.38 78.05 80.05 78.08 C 80.05 76.68 80.05 75.29 80.06 73.90 Z" />
</g>
<g id="#dbdcddff">
<path fill="#dbdcdd" opacity="1.00" d=" M 33.96 81.78 C 56.97 81.76 79.98 81.76 102.99 81.78 C 102.96 83.92 102.90 86.07 102.85 88.22 C 94.82 88.54 86.79 88.33 78.76 88.40 C 71.80 88.41 64.85 88.42 57.90 88.41 C 50.17 88.28 42.44 88.58 34.72 88.28 L 34.15 87.73 C 34.00 85.75 33.98 83.76 33.96 81.78 Z" />
</g>
<g id="#b5b7b9ff">
<path fill="#b5b7b9" opacity="1.00" d=" M 57.90 88.41 C 64.85 88.42 71.80 88.41 78.76 88.40 C 78.81 89.57 78.89 90.73 78.98 91.90 C 71.89 91.58 64.79 91.35 57.71 90.81 C 57.76 90.21 57.85 89.01 57.90 88.41 Z" />
</g>
<g id="#e1e2e3ff">
<path fill="#e1e2e3" opacity="1.00" d=" M 57.71 90.81 C 64.79 91.35 71.89 91.58 78.98 91.90 C 79.17 93.80 79.49 95.68 79.83 97.56 C 72.26 97.56 64.69 97.56 57.13 97.56 C 57.35 95.31 57.55 93.06 57.71 90.81 Z" />
</g>
</svg>
