<?xml version="1.0" encoding="UTF-8" ?>
<!DOCTYPE svg PUBLIC "-//W3C//DTD SVG 1.1//EN" "http://www.w3.org/Graphics/SVG/1.1/DTD/svg11.dtd">
<svg width="138pt" height="138pt" viewBox="0 0 138 138" version="1.1" xmlns="http://www.w3.org/2000/svg">
<g id="#ffffffff">
</g>
<g id="#4f5a69ff">
<path fill="#4f5a69" opacity="1.00" d=" M 65.48 0.00 L 72.61 0.00 C 89.94 0.93 106.80 8.59 118.77 21.17 C 133.26 36.06 140.22 57.66 137.38 78.23 C 124.49 67.03 113.21 54.13 100.56 42.69 C 100.02 42.22 99.48 41.75 98.95 41.29 C 95.79 41.27 92.64 41.26 89.49 41.27 C 83.77 41.29 78.05 41.28 72.32 41.28 C 66.59 41.27 60.86 41.27 55.12 41.29 C 49.50 41.26 43.87 41.27 38.25 41.31 C 37.99 41.69 37.47 42.44 37.21 42.82 C 35.49 46.97 36.31 51.60 36.01 55.97 C 36.01 68.91 35.73 81.87 36.14 94.80 C 36.43 95.07 37.01 95.61 37.30 95.88 C 37.71 96.25 38.54 97.00 38.95 97.37 C 45.66 104.23 52.65 110.79 59.36 117.64 C 65.82 124.36 73.22 130.12 79.26 137.25 C 63.61 139.48 47.21 136.49 33.66 128.28 C 14.07 116.79 1.01 95.14 0.00 72.45 L 0.00 65.39 C 0.95 46.63 9.91 28.42 24.32 16.35 C 35.74 6.55 50.46 0.78 65.48 0.00 Z" />
</g>
<g id="#5fbcf5ff">
<path fill="#5fbcf5" opacity="1.00" d=" M 38.25 41.31 C 43.87 41.27 49.50 41.26 55.12 41.29 C 52.05 44.94 49.08 48.69 45.95 52.30 C 43.06 52.28 40.17 52.31 37.28 52.38 C 37.28 49.19 37.24 46.01 37.21 42.82 C 37.47 42.44 37.99 41.69 38.25 41.31 Z" />
</g>
<g id="#f26b55ff">
<path fill="#f26b55" opacity="1.00" d=" M 55.12 41.29 C 60.86 41.27 66.59 41.27 72.32 41.28 C 69.28 44.93 66.21 48.56 63.28 52.31 C 57.50 52.32 51.73 52.33 45.95 52.30 C 49.08 48.69 52.05 44.94 55.12 41.29 Z" />
</g>
<g id="#ffd006ff">
<path fill="#ffd006" opacity="1.00" d=" M 72.32 41.28 C 78.05 41.28 83.77 41.29 89.49 41.27 C 86.46 44.94 83.40 48.61 80.39 52.30 C 74.68 52.32 68.98 52.31 63.28 52.31 C 66.21 48.56 69.28 44.93 72.32 41.28 Z" />
</g>
<g id="#5fd4afff">
<path fill="#5fd4af" opacity="1.00" d=" M 89.49 41.27 C 92.64 41.26 95.79 41.27 98.95 41.29 C 99.48 41.75 100.02 42.22 100.56 42.69 C 100.52 45.96 100.47 49.22 100.46 52.49 C 93.77 52.14 87.08 52.36 80.39 52.30 C 83.40 48.61 86.46 44.94 89.49 41.27 Z" />
</g>
<g id="#404a5aff">
<path fill="#404a5a" opacity="1.00" d=" M 36.01 55.97 C 36.31 51.60 35.49 46.97 37.21 42.82 C 37.24 46.01 37.28 49.19 37.28 52.38 C 37.24 66.88 37.21 81.38 37.30 95.88 C 37.01 95.61 36.43 95.07 36.14 94.80 C 35.73 81.87 36.01 68.91 36.01 55.97 Z" />
</g>
<g id="#3f4854ff">
<path fill="#3f4854" opacity="1.00" d=" M 100.56 42.69 C 113.21 54.13 124.49 67.03 137.38 78.23 C 135.42 93.07 128.43 107.20 117.80 117.75 C 107.49 128.16 93.76 135.14 79.26 137.25 C 73.22 130.12 65.82 124.36 59.36 117.64 C 52.65 110.79 45.66 104.23 38.95 97.37 C 55.62 97.35 72.29 97.36 88.96 97.36 C 92.81 97.30 96.83 97.88 100.49 96.33 C 100.52 81.72 100.57 67.10 100.46 52.49 C 100.47 49.22 100.52 45.96 100.56 42.69 Z" />
</g>
<g id="#f9f9f9ff">
<path fill="#f9f9f9" opacity="1.00" d=" M 37.28 52.38 C 40.17 52.31 43.06 52.28 45.95 52.30 C 51.73 52.33 57.50 52.32 63.28 52.31 C 68.98 52.31 74.68 52.32 80.39 52.30 C 87.08 52.36 93.77 52.14 100.46 52.49 C 100.57 67.10 100.52 81.72 100.49 96.33 C 96.83 97.88 92.81 97.30 88.96 97.36 C 72.29 97.36 55.62 97.35 38.95 97.37 C 38.54 97.00 37.71 96.25 37.30 95.88 C 37.21 81.38 37.24 66.88 37.28 52.38 M 41.01 60.27 C 40.47 66.88 40.63 73.53 40.98 80.14 C 41.78 79.16 42.51 78.04 43.64 77.40 C 43.46 78.77 43.28 80.14 43.11 81.51 C 49.24 81.46 55.38 81.46 61.52 81.51 C 61.59 82.09 61.74 83.25 61.81 83.84 C 62.37 83.65 63.49 83.28 64.05 83.10 C 64.44 75.52 64.52 67.88 64.00 60.30 C 56.34 60.19 48.67 60.23 41.01 60.27 M 68.48 60.46 C 68.40 61.57 68.32 62.68 68.25 63.80 C 77.39 64.32 86.58 64.31 95.73 63.82 C 95.64 62.72 95.56 61.61 95.48 60.51 C 86.48 60.25 77.48 60.41 68.48 60.46 M 67.86 69.02 C 68.69 71.17 71.25 70.41 73.03 70.61 C 80.56 70.46 88.10 70.73 95.63 70.50 C 95.57 70.03 95.46 69.08 95.41 68.61 C 90.64 68.15 85.84 68.51 81.05 68.43 C 76.65 68.54 72.18 67.98 67.86 69.02 M 67.87 74.09 C 68.50 75.26 69.60 76.00 70.97 75.86 C 77.66 75.98 84.35 75.82 91.03 75.90 C 92.85 75.76 95.38 76.18 96.13 73.99 C 90.78 73.34 85.39 73.71 80.02 73.64 C 75.96 73.66 71.87 73.29 67.87 74.09 M 68.54 79.17 C 68.40 79.57 68.13 80.39 68.00 80.79 C 77.28 81.15 86.59 80.93 95.88 80.79 C 95.80 80.38 95.63 79.58 95.55 79.17 C 90.77 78.22 85.87 78.90 81.03 78.75 C 76.87 78.90 72.63 78.27 68.54 79.17 M 41.17 89.34 C 41.16 89.90 41.14 91.02 41.13 91.58 C 59.32 91.48 77.52 91.61 95.71 91.52 C 95.79 90.96 95.95 89.85 96.03 89.29 C 77.74 89.33 59.46 89.28 41.17 89.34 Z" />
</g>
<g id="#e3e3e3ff">
<path fill="#e3e3e3" opacity="1.00" d=" M 41.01 60.27 C 48.67 60.23 56.34 60.19 64.00 60.30 C 64.52 67.88 64.44 75.52 64.05 83.10 C 63.49 83.28 62.37 83.65 61.81 83.84 C 61.74 83.25 61.59 82.09 61.52 81.51 C 61.77 77.51 58.41 75.43 55.34 73.81 C 55.93 71.56 56.55 69.31 56.73 66.99 C 57.28 63.63 52.57 63.71 50.50 64.65 C 47.33 66.76 49.05 70.88 50.67 73.42 C 48.37 74.83 45.96 76.04 43.64 77.40 C 42.51 78.04 41.78 79.16 40.98 80.14 C 40.63 73.53 40.47 66.88 41.01 60.27 Z" />
<path fill="#e3e3e3" opacity="1.00" d=" M 41.17 89.34 C 59.46 89.28 77.74 89.33 96.03 89.29 C 95.95 89.85 95.79 90.96 95.71 91.52 C 77.52 91.61 59.32 91.48 41.13 91.58 C 41.14 91.02 41.16 89.90 41.17 89.34 Z" />
</g>
<g id="#e5e5e5ff">
<path fill="#e5e5e5" opacity="1.00" d=" M 68.48 60.46 C 77.48 60.41 86.48 60.25 95.48 60.51 C 95.56 61.61 95.64 62.72 95.73 63.82 C 86.58 64.31 77.39 64.32 68.25 63.80 C 68.32 62.68 68.40 61.57 68.48 60.46 Z" />
<path fill="#e5e5e5" opacity="1.00" d=" M 67.86 69.02 C 72.18 67.98 76.65 68.54 81.05 68.43 C 85.84 68.51 90.64 68.15 95.41 68.61 C 95.46 69.08 95.57 70.03 95.63 70.50 C 88.10 70.73 80.56 70.46 73.03 70.61 C 71.25 70.41 68.69 71.17 67.86 69.02 Z" />
</g>
<g id="#69778aff">
<path fill="#69778a" opacity="1.00" d=" M 50.50 64.65 C 52.57 63.71 57.28 63.63 56.73 66.99 C 56.55 69.31 55.93 71.56 55.34 73.81 C 58.41 75.43 61.77 77.51 61.52 81.51 C 55.38 81.46 49.24 81.46 43.11 81.51 C 43.28 80.14 43.46 78.77 43.64 77.40 C 45.96 76.04 48.37 74.83 50.67 73.42 C 49.05 70.88 47.33 66.76 50.50 64.65 Z" />
</g>
<g id="#e9e9e9ff">
<path fill="#e9e9e9" opacity="1.00" d=" M 67.87 74.09 C 71.87 73.29 75.96 73.66 80.02 73.64 C 85.39 73.71 90.78 73.34 96.13 73.99 C 95.38 76.18 92.85 75.76 91.03 75.90 C 84.35 75.82 77.66 75.98 70.97 75.86 C 69.60 76.00 68.50 75.26 67.87 74.09 Z" />
</g>
<g id="#e8e8e8ff">
<path fill="#e8e8e8" opacity="1.00" d=" M 68.54 79.17 C 72.63 78.27 76.87 78.90 81.03 78.75 C 85.87 78.90 90.77 78.22 95.55 79.17 C 95.63 79.58 95.80 80.38 95.88 80.79 C 86.59 80.93 77.28 81.15 68.00 80.79 C 68.13 80.39 68.40 79.57 68.54 79.17 Z" />
</g>
</svg>
